<svg width="37" height="36" viewBox="0 0 37 36" fill="none" xmlns="http://www.w3.org/2000/svg">
<path d="M11.9962 22.7458L17.2606 6.04308C17.4148 5.55557 17.8082 5.17965 18.3044 5.0426L35.2027 0.421999C35.61 0.310399 35.9797 0.690229 35.8512 1.08964L30.6895 17.1619C30.5393 17.6298 30.1696 17.994 29.6971 18.1408L12.6624 23.4075C12.2532 23.5348 11.8677 23.153 11.9962 22.7477V22.7458ZM20.0935 8.23199L16.968 18.1506C16.9048 18.3542 17.0965 18.5442 17.3001 18.4795L27.5404 15.3137C27.6866 15.2686 27.8013 15.1551 27.8488 15.0102L30.9109 5.47334C30.9742 5.27363 30.7903 5.08372 30.5867 5.1405L20.4157 7.92069C20.2615 7.96376 20.1389 8.07928 20.0915 8.23199H20.0935Z" fill="#15252D"/>
<path d="M26.9829 21.9176C26.0755 27.9459 20.4869 32.4804 14.0066 31.7599C8.97944 31.2019 4.25866 26.5402 3.68141 21.5632C2.94206 15.1903 7.43946 9.6867 13.4531 8.71363C13.5361 8.69993 13.6053 8.64119 13.631 8.56092L14.657 5.30692C14.7045 5.15812 14.5859 5.00736 14.4297 5.01519C5.939 5.51837 -0.715171 12.88 0.0617429 21.571C0.71609 28.8896 6.47078 34.6321 13.8564 35.331C22.0743 36.1083 29.1416 30.4285 30.4859 22.8241C30.5946 22.2113 30.6638 21.5867 30.6935 20.9524C30.7014 20.7977 30.5492 20.6841 30.3989 20.7292L27.1351 21.7375C27.0521 21.7629 26.9928 21.8334 26.9809 21.9176H26.9829Z" fill="#15252D"/>
</svg>
